<?xml version="1.0" encoding="iso-8859-1"?>
<!-- Generator: Adobe Illustrator 17.1.0, SVG Export Plug-In . SVG Version: 6.00 Build 0)  -->
<!DOCTYPE svg PUBLIC "-//W3C//DTD SVG 1.1//EN" "http://www.w3.org/Graphics/SVG/1.1/DTD/svg11.dtd">
<svg xmlns="http://www.w3.org/2000/svg" xmlns:xlink="http://www.w3.org/1999/xlink" version="1.1" id="Capa_1" x="0px" y="0px" viewBox="0 0 92.008 92.008" style="enable-background:new 0 0 92.008 92.008;" xml:space="preserve" width="512px" height="512px">
<g>
	<path d="M40.736,21.672c5.975,0,10.836-4.861,10.836-10.836S46.711,0,40.736,0S29.9,4.861,29.9,10.836S34.761,21.672,40.736,21.672   z" fill="#ff9c5f"/>
	<path d="M73.798,10.78L72.519,8.93c-0.555-0.802-1.468-1.281-2.443-1.281c-0.622,0-1.218,0.192-1.726,0.555l-22.38,16.01H33.203   H32.32h-1.367c-1.433,0-3.143,0.878-3.979,2.042l-8.574,11.945c-0.862,1.202-0.969,3.153-0.243,4.441L25.1,54.967   c0.711,1.263,2.404,2.252,3.853,2.252h0.367v0.12v0.503v29.166c0,2.757,2.243,5,5,5h0.352c2.757,0,5-2.243,5-5V60.842h2.127v26.166   c0,2.757,2.243,5,5,5h0.351c2.757,0,5-2.243,5-5V57.842v-0.503V29.936l20.918-14.965C74.407,14.014,74.734,12.134,73.798,10.78z    M29.32,47.981l-3.4-5.539c-0.369-0.601-0.337-1.673,0.065-2.251l3.335-4.786V47.981z" fill="#ff9c5f"/>
</g>
<g>
</g>
<g>
</g>
<g>
</g>
<g>
</g>
<g>
</g>
<g>
</g>
<g>
</g>
<g>
</g>
<g>
</g>
<g>
</g>
<g>
</g>
<g>
</g>
<g>
</g>
<g>
</g>
<g>
</g>
</svg>
